<svg width="227" height="110" viewBox="0 0 227 110" fill="none" xmlns="http://www.w3.org/2000/svg">
<path d="M7.63402 31.3955C6.70794 32.1567 5.62308 32.5907 4.37944 32.6974C3.82065 32.5594 3.29525 32.2084 2.80325 31.6445C2.3259 31.0804 1.9422 30.4123 1.65215 29.6402C1.36188 28.8535 1.2112 28.094 1.2001 27.3617C1.18679 26.4829 1.30596 25.646 1.55762 24.8511C1.80928 24.0562 2.14527 23.509 2.56559 23.2096C2.87317 23.205 4.07942 23.531 6.18433 24.1877L7.19962 24.4799L7.89135 23.7223L6.2952 11.1986C6.17759 10.2042 6.11478 9.44337 6.1068 8.91608C6.08727 7.62717 6.26259 6.6283 6.63275 5.91949C7.01734 5.19581 7.63206 4.67374 8.47691 4.35329C9.32177 4.03284 10.4908 3.83932 11.9841 3.77275L18.0892 3.50446C18.1218 3.72371 18.1843 3.97915 18.2766 4.27075C18.449 5.01529 18.5756 5.636 18.6564 6.13289C18.7518 6.62954 18.796 7.12698 18.7889 7.62519C18.2106 8.13206 17.5651 8.55936 16.8525 8.90711C16.1399 9.25486 15.2147 9.59118 14.077 9.91607L14.8183 21.1342C14.8955 22.3636 14.5095 23.4755 13.6602 24.47C12.8109 25.4644 11.653 26.3975 10.1866 27.2695L10.1915 27.599C11.6083 28.2808 12.7336 29.0695 13.5676 29.9651C14.416 30.846 14.8511 32.004 14.8728 33.4394L14.8575 33.8792L14.3805 44.4564C15.2309 44.5022 15.9804 44.6593 16.6291 44.9278C17.2924 45.1961 17.7734 45.5185 18.0721 45.8948C18.0863 46.8322 18.0326 47.6388 17.911 48.3145C17.7894 48.9903 17.5879 49.7112 17.3065 50.4773L11.3965 50.5668C9.88793 50.5897 8.83425 50.1808 8.23551 49.3401C7.65141 48.4993 7.34872 47.3758 7.32741 45.9697C7.32386 45.7354 7.33318 45.3836 7.35538 44.9145L8.07908 31.7624L7.63402 31.3955ZM23.2671 36.3229C23.2309 33.9354 23.2329 32.1334 23.2731 30.9169C23.313 29.6857 23.4395 27.8818 23.6526 25.5052L21.0991 25.2143C20.7771 24.2669 20.5591 23.4205 20.4453 22.6751C20.3461 21.9294 20.2875 20.9634 20.2695 19.777C20.5008 19.5684 20.8852 19.3209 21.423 19.0344C21.9751 18.733 22.6304 18.474 23.389 18.2574C24.1473 18.0262 24.9145 17.9047 25.6908 17.8929C27.4631 17.8661 28.7212 18.2279 29.465 18.9784C30.2236 19.7288 30.6144 20.8655 30.6374 22.3888C30.6503 23.2383 30.5432 24.39 30.3162 25.8438C29.9414 28.1788 29.7548 29.4049 29.7566 29.5221C29.7577 29.5953 29.8101 29.6678 29.9137 29.7395C30.0172 29.7965 30.1274 29.8241 30.2446 29.8224C30.3764 29.8204 30.4635 29.7678 30.5059 29.6646C31.0565 27.3269 31.6129 25.37 32.175 23.7939C32.7371 22.2178 33.6022 20.813 34.7701 19.5793C35.9381 18.3456 37.4668 17.7145 39.3563 17.6859C41.6997 17.6504 43.395 18.3425 44.442 19.7624C45.4888 21.1676 46.0286 22.9541 46.0615 25.1218C46.0907 27.0552 45.892 28.9261 45.4653 30.7345C45.0383 32.5283 44.5027 34.4043 43.8584 36.3625C43.8866 36.2888 43.7884 36.576 43.5638 37.224L43.6084 37.2673L46.7961 35.9005C47.9534 36.8645 48.6396 38.158 48.8546 39.7809C48.8562 39.8834 48.533 40.3058 47.885 41.0481C47.2516 41.7902 46.4051 42.4843 45.3454 43.1303C44.2857 43.7763 43.0602 44.1099 41.6687 44.1309C40.2773 44.152 39.1365 43.7957 38.2464 43.062C37.3563 42.3284 36.8976 41.0608 36.8703 39.2592C36.8485 37.8238 36.878 35.9042 36.9588 33.5004C37.0396 31.0965 37.1275 29.1614 37.2225 27.6949C36.8354 27.2906 36.3634 27.078 35.8064 27.0571C35.3037 27.724 34.5694 29.0536 33.6034 31.046C32.6374 33.0384 31.9567 34.5284 31.5615 35.516C31.5353 35.7215 31.5236 35.9194 31.5265 36.1098C31.5376 36.8422 31.6625 37.8292 31.901 39.0708C32.1394 40.2978 32.4277 41.4435 32.7662 42.5078C32.5101 43.0098 31.9745 43.4354 31.1594 43.7847C30.3442 44.134 29.3362 44.3178 28.1351 44.336C27.0513 44.3524 26.1785 44.2777 25.5167 44.1119C24.8696 43.9459 24.4127 43.7697 24.1462 43.5833C23.8795 43.3823 23.7458 43.2598 23.7451 43.2158C23.7285 43.0842 23.6866 42.7406 23.6196 42.1849C23.5524 41.6145 23.4818 40.8245 23.4079 39.8148C23.3338 38.7904 23.2868 37.6264 23.2671 36.3229ZM50.3852 30.572C50.3451 27.921 50.735 25.615 51.555 23.6541C52.375 21.6932 53.6557 20.1649 55.3971 19.069C57.1383 17.9585 59.3344 17.3832 61.9855 17.343C64.9148 17.2987 67.2227 17.8131 68.9091 18.8863C70.5952 19.9449 71.7825 21.4358 72.4709 23.3592C73.1739 25.2824 73.5466 27.6427 73.589 30.4403C73.6274 32.9741 73.215 35.2438 72.3517 37.2493C71.5029 39.24 70.1937 40.8274 68.4244 42.0115C66.6694 43.1808 64.503 43.785 61.9252 43.824C57.9413 43.8844 55.0373 42.7051 53.2134 40.2862C51.3892 37.8526 50.4465 34.6146 50.3852 30.572ZM62.7284 37.3732C63.4754 37.3618 63.9286 37.2964 64.0879 37.1768C64.4159 36.5858 64.6597 35.7544 64.8193 34.6825C64.9788 33.6106 65.0492 32.4522 65.0303 31.2072C65.013 30.0648 64.9236 28.9967 64.762 28.0029C64.6003 26.9945 64.3832 26.2067 64.1109 25.6394C63.9469 25.4515 63.6226 25.3172 63.1379 25.2367C62.653 25.1414 62.125 25.0982 61.5537 25.1068C60.8067 25.1181 60.2953 25.2065 60.0195 25.3718C59.3062 26.6425 58.9666 28.3983 59.0005 30.6393C59.0165 31.6939 59.1134 32.7692 59.2911 33.8652C59.4689 34.9613 59.689 35.9542 59.9516 36.8439C60.1302 37.0316 60.4913 37.1726 61.0348 37.267C61.578 37.3466 62.1426 37.382 62.7284 37.3732ZM78.8529 26.8665C78.7859 22.4431 78.8003 19.0441 78.8962 16.6693L78.8742 16.6697L75.7255 16.2559C75.5269 15.7168 75.3713 15.1185 75.2588 14.461C75.1463 13.8034 75.0854 13.1671 75.076 12.5519C75.0689 12.0832 75.0978 11.57 75.1626 11.0123C76.9544 10.3406 79.4298 9.82696 82.5888 9.47145C85.7479 9.11593 88.7921 8.91599 91.7214 8.87161C93.9624 8.83766 95.8911 8.98424 97.5075 9.31135C99.124 9.63847 100.484 10.4163 101.586 11.6449C102.703 12.8585 103.281 14.6957 103.318 17.1564C103.337 18.3867 103.095 19.8261 102.592 21.4745C102.104 23.108 101.469 24.7072 100.687 26.272C99.9196 27.8219 99.1402 29.0789 98.349 30.0432C97.1842 31.4819 95.8786 32.3367 94.4324 32.6077C92.0361 33.0249 89.4977 33.2538 86.8174 33.2944C86.7816 34.8039 86.7761 35.8881 86.8007 36.547L90.0709 36.2777C90.7613 37.366 91.1546 38.6639 91.2507 40.1714C91.2518 40.2446 90.927 40.5645 90.2763 41.1311C89.6257 41.6976 88.7619 42.2235 87.6852 42.7086C86.6231 43.1935 85.3963 43.4465 84.0049 43.4676C82.6281 43.4884 81.5239 43.1316 80.6924 42.397C79.8752 41.6476 79.4526 40.3428 79.4244 38.4827C79.1293 35.4399 78.9462 31.5751 78.8752 26.8881L78.8529 26.8665ZM92.7656 27.0293C93.122 25.4123 93.4111 23.7012 93.6328 21.8959C93.8689 20.0757 93.9914 18.4916 94.0003 17.1437C93.9251 17.013 93.5498 16.9015 92.8745 16.8092C92.1992 16.7168 91.3269 16.6788 90.2577 16.695C89.5107 16.7063 88.5811 16.7497 87.4689 16.8251C87.404 21.2504 87.2821 24.8049 87.103 27.4886L92.7656 27.0293ZM105.094 29.963C105.056 27.4291 105.446 25.1597 106.266 23.1549C107.085 21.1501 108.372 19.5557 110.127 18.3717C111.896 17.1729 114.113 16.5533 116.779 16.5129C118.17 16.4918 119.564 16.6392 120.961 16.955C122.357 17.2561 123.545 17.7802 124.523 18.5272C125.427 19.2314 126.086 20.1736 126.499 21.354C126.927 22.5196 127.152 23.82 127.174 25.2554C127.188 26.2074 127.122 27.1827 126.976 28.1811C126.805 28.4767 126.467 28.87 125.962 29.3611C125.456 29.8376 124.862 30.3081 124.181 30.7726C123.499 31.237 122.838 31.5987 122.198 31.8574C121.583 31.9107 120.946 31.9423 120.287 31.9523C119.13 31.9698 117.958 31.9363 116.77 31.8517C115.582 31.7672 114.54 31.6658 113.645 31.5475C113.781 32.7907 114.178 33.8688 114.836 34.7818C115.495 35.6947 116.527 36.1406 117.933 36.1193C118.065 36.1173 118.277 36.0994 118.57 36.0657C119.462 35.9643 120.498 35.7142 121.679 35.3154C122.874 34.9017 124.061 34.4296 125.239 33.899C125.804 34.4471 126.223 34.9975 126.495 35.5501C126.767 36.1026 126.962 36.8981 127.08 37.9365C126.634 38.4706 125.904 39.1263 124.891 39.9035C123.892 40.6804 122.664 41.3876 121.209 42.0249C119.753 42.6476 118.227 42.9711 116.631 42.9953C114.229 43.0317 112.162 42.4843 110.431 41.3531C108.714 40.2071 107.401 38.6448 106.492 36.6662C105.598 34.6727 105.132 32.4383 105.094 29.963ZM119.166 24.6955C118.958 24.4789 118.611 24.3157 118.126 24.2058C117.641 24.0813 117.135 24.0231 116.607 24.031C116.182 24.0375 115.751 24.0806 115.313 24.1605C114.889 24.2402 114.634 24.3246 114.547 24.4138C114.064 25.4027 113.766 26.5207 113.653 27.7676L119.511 27.1075L119.166 24.6955ZM137.189 27.7627C138.053 27.7496 139.006 27.823 140.049 27.983C141.106 28.1428 142.076 28.3406 142.958 28.5762L142.948 27.8952C142.941 27.4411 142.919 26.936 142.881 26.3799C142.858 25.8235 142.823 25.4578 142.777 25.2827C142.641 25.0357 142.256 24.7852 141.623 24.5311C141.003 24.2767 139.991 24.1602 138.585 24.1815C137.721 24.1946 136.829 24.318 135.909 24.5517C135.004 24.7705 133.998 25.0641 132.89 25.4325C132.274 24.4456 131.777 23.5082 131.397 22.6203C131.032 21.7175 130.842 20.8121 130.829 19.904C130.824 19.6257 130.842 19.3471 130.882 19.0681C133.227 17.1867 136.281 16.2175 140.045 16.1604C142.125 16.1289 143.974 16.3353 145.593 16.7796C147.211 17.2239 148.55 18.1119 149.61 19.4437C150.671 20.7754 151.22 22.6789 151.257 25.1542C151.294 27.5709 151.044 29.9188 150.507 32.1977C149.984 34.4617 149.716 35.6158 149.702 35.6599L152.867 34.2495C153.299 34.6972 153.681 35.2481 154.013 35.9023C154.36 36.5416 154.583 37.2854 154.684 38.1336C154.486 38.5761 154.048 39.1468 153.37 39.8456C152.691 40.5298 151.858 41.1431 150.87 41.6854C149.882 42.2278 148.846 42.5072 147.763 42.5236C146.547 42.542 145.619 42.1972 144.978 41.489C144.352 40.7806 144.03 39.8552 144.013 38.7128C144.003 38.0683 144.089 37.4151 144.269 36.7531L143.607 36.5654C143.232 38.8858 142.384 40.4808 141.064 41.3505C139.744 42.2202 138.279 42.6673 136.668 42.6917C135.613 42.7077 134.591 42.4302 133.6 41.8592C132.61 41.2735 131.799 40.4214 131.166 39.303C130.534 38.1698 130.206 36.8416 130.183 35.3184C130.146 32.887 130.726 31.0323 131.923 29.7543C133.119 28.4616 134.874 27.7977 137.189 27.7627ZM139.82 36.0953C140.185 36.0166 140.614 35.805 141.107 35.4605C141.614 35.1159 142.062 34.7062 142.451 34.2315C142.839 33.7569 143.067 33.3066 143.133 32.8807L142.994 32.3554C142.216 32.2647 141.388 32.2259 140.509 32.2393C139.762 32.2506 139.25 32.3169 138.973 32.4383C138.513 32.9727 138.287 33.5621 138.297 34.2066C138.304 34.6753 138.428 35.0983 138.668 35.4755C138.923 35.8526 139.307 36.0592 139.82 36.0953ZM155.494 29.1994C155.455 26.6655 155.846 24.3962 156.665 22.3913C157.484 20.3865 158.771 18.7921 160.526 17.6082C162.295 16.4094 164.513 15.7898 167.178 15.7494C168.087 15.7356 169.127 15.7784 170.301 15.8779C171.489 15.9624 172.626 16.1063 173.714 16.3096L174.158 16.6105C174.824 17.0546 175.313 17.4135 175.624 17.6871C175.951 17.9458 176.293 18.3142 176.652 18.7923C176.664 19.5832 176.571 20.676 176.372 22.0708C176.188 23.4507 175.944 24.7363 175.639 25.9276C175.335 27.1188 175.039 27.8851 174.751 28.2264C174.272 28.4827 173.49 28.6191 172.406 28.6355C171.879 28.6435 171.38 28.6144 170.91 28.5483C170.455 28.4673 170.109 28.3627 169.873 28.2344L169.35 24.1769C169.126 23.9313 168.618 23.7412 167.825 23.6067C167.046 23.4573 166.327 23.3877 165.668 23.3976C165.463 23.4007 165.273 23.4183 165.098 23.4502C164.771 24.1437 164.528 25.0264 164.369 26.0983C164.209 27.1702 164.138 28.2627 164.155 29.3758C164.179 30.987 164.463 32.3525 165.008 33.4723C165.552 34.5774 166.637 35.1177 168.263 35.0931C169.068 35.0809 169.857 34.9371 170.629 34.6617C171.416 34.386 172.406 33.9682 173.599 33.408C174.094 33.1662 174.464 32.9921 174.712 32.8858C175.307 33.4628 175.777 34.0709 176.124 34.7103C176.471 35.3496 176.703 36.1738 176.821 37.1829C175.9 38.2956 174.598 39.4068 172.916 40.5164C171.248 41.6258 169.286 42.1975 167.03 42.2317C164.628 42.2681 162.562 41.7207 160.83 40.5896C159.114 39.4436 157.801 37.8813 156.892 35.9026C155.997 33.9091 155.531 31.6747 155.494 29.1994ZM179.441 28.8366C179.403 26.3027 179.793 24.0334 180.613 22.0285C181.432 20.0237 182.719 18.4293 184.474 17.2454C186.243 16.0466 188.46 15.427 191.126 15.3866C192.517 15.3655 193.911 15.5128 195.308 15.8286C196.704 16.1298 197.892 16.6539 198.87 17.4008C199.774 18.105 200.433 19.0473 200.846 20.2277C201.274 21.3932 201.499 22.6937 201.521 24.129C201.535 25.0811 201.469 26.0563 201.323 27.0547C201.152 27.3503 200.814 27.7437 200.308 28.2348C199.803 28.7112 199.209 29.1817 198.528 29.6462C197.846 30.1107 197.185 30.4723 196.545 30.7311C195.93 30.7843 195.293 30.8159 194.634 30.8259C193.477 30.8435 192.305 30.8099 191.117 30.7254C189.929 30.6408 188.887 30.5394 187.992 30.4211C188.128 31.6643 188.525 32.7424 189.183 33.6554C189.842 34.5684 190.874 35.0142 192.28 34.9929C192.412 34.9909 192.624 34.9731 192.916 34.9393C193.809 34.8379 194.845 34.5878 196.026 34.189C197.221 33.7754 198.407 33.3032 199.586 32.7726C200.151 33.3208 200.57 33.8711 200.842 34.4237C201.114 34.9763 201.309 35.7718 201.427 36.8101C200.981 37.3443 200.251 38 199.238 38.7771C198.238 39.5541 197.011 40.2612 195.556 40.8986C194.1 41.5213 192.574 41.8447 190.978 41.8689C188.576 41.9053 186.509 41.3579 184.778 40.2268C183.061 39.0808 181.748 37.5185 180.839 35.5398C179.945 33.5463 179.479 31.3119 179.441 28.8366ZM193.513 23.5691C193.305 23.3525 192.958 23.1893 192.473 23.0794C191.988 22.955 191.481 22.8967 190.954 22.9047C190.529 22.9111 190.098 22.9543 189.66 23.0342C189.236 23.1138 188.981 23.1983 188.894 23.2875C188.411 24.2764 188.113 25.3943 188 26.6413L193.858 25.9812L193.513 23.5691ZM215.676 41.7584C215.713 42.2267 215.733 42.578 215.736 42.8123C215.757 44.2184 215.482 45.3507 214.909 46.209C214.35 47.0672 213.317 47.5077 211.808 47.5306L205.898 47.6201C205.594 46.8629 205.37 46.1484 205.228 45.4767C205.086 44.8049 205.008 44.0004 204.994 43.063C205.281 42.6777 205.745 42.3411 206.385 42.053C207.04 41.7647 207.792 41.5849 208.64 41.5134L207.843 30.9554C207.717 29.3898 208.064 28.1173 208.884 27.138C209.704 26.144 210.848 25.2769 212.317 24.5368L212.312 24.2073C210.82 23.3802 209.634 22.4825 208.755 21.5143C207.876 20.546 207.456 19.4463 207.496 18.2151L207.897 6.97969C206.75 6.68942 205.815 6.38128 205.093 6.05528C204.37 5.72928 203.712 5.32172 203.118 4.8326C203.096 4.33484 203.118 3.8364 203.184 3.3373C203.264 2.83798 203.379 2.21361 203.529 1.46418C203.612 1.16992 203.667 0.912711 203.693 0.692566L209.803 0.775795C211.298 0.797102 212.472 0.955111 213.326 1.24982C214.181 1.54453 214.804 2.04785 215.195 2.75977C215.601 3.45683 215.814 4.44981 215.834 5.73872C215.842 6.26601 215.802 7.02842 215.715 8.02595L214.498 20.5922L215.213 21.3285L216.219 21.0056C218.303 20.2855 219.499 19.9231 219.806 19.9185C220.235 20.205 220.588 20.7417 220.864 21.5286C221.139 22.3155 221.284 23.1484 221.297 24.0272C221.308 24.7595 221.18 25.5233 220.914 26.3184C220.648 27.0989 220.277 27.7784 219.802 28.357C219.342 28.9353 218.835 29.3019 218.281 29.4568C217.034 29.3878 215.937 28.9869 214.988 28.2541L214.554 28.6343L215.676 41.7584ZM8.12085 64.9799C8.51431 64.8421 9.05524 64.768 9.74364 64.7575C10.7689 64.742 11.8915 64.8642 13.1114 65.124C14.3311 65.3693 15.2588 65.6848 15.8946 66.0708L7.5489 102.654L7.15344 102.66C6.09887 102.676 5.13019 102.559 4.24739 102.308C3.36459 102.058 2.52362 101.668 1.72449 101.138L8.12085 64.9799ZM20.6268 94.1273C20.6173 93.4975 20.6085 91.952 20.6005 89.4909C20.5712 84.6568 20.5531 82.0128 20.5463 81.5587L18.52 81.2598C18.2291 80.4291 18.0195 79.6485 17.8912 78.918C17.7629 78.1874 17.6931 77.4486 17.6818 76.7016C17.6772 76.3941 17.6809 76.1596 17.6932 75.9983C17.9388 75.7748 18.323 75.5053 18.8456 75.1897C19.3682 74.8741 19.9866 74.5937 20.7007 74.3485C21.4146 74.0886 22.1451 73.9531 22.8921 73.9417C24.6351 73.9153 25.9006 74.2844 26.6886 75.0489C27.4913 75.8132 27.9039 76.9423 27.9266 78.4363C27.9403 79.3444 27.8408 80.5106 27.628 81.9349C27.4296 83.3443 27.2177 84.351 26.9925 84.9551L27.7854 85.0749L29.0284 80.0897C29.5803 77.8399 30.2885 76.2323 31.1529 75.2669C32.017 74.2869 32.9983 73.7886 34.0969 73.772C34.8145 73.7611 35.5266 73.8602 36.233 74.0693C36.954 74.2781 37.5073 74.5407 37.893 74.8572C38.3169 75.7591 38.5403 76.9643 38.5631 78.4729C38.5791 79.5275 38.4924 80.5763 38.3031 81.6193C38.1136 82.6477 37.8625 83.4792 37.5498 84.1139L32.9268 83.5687C32.0045 84.5788 31.0295 85.9781 30.0017 87.7663C28.9738 89.5399 28.1561 91.1711 27.5487 92.66L27.5441 93.8027L31.791 92.7275C32.5253 93.8152 32.9625 95.1124 33.1025 96.6193C33.1038 96.7071 32.7797 97.071 32.1302 97.7108C31.4806 98.3506 30.618 98.9496 29.5423 99.508C28.4811 100.051 27.2548 100.334 25.8633 100.355C24.428 100.377 23.2212 100.014 22.2429 99.267C21.2791 98.5051 20.7541 97.2092 20.6677 95.3793C20.6498 95.1598 20.6361 94.7425 20.6268 94.1273ZM40.2924 86.7314C40.2522 84.0803 40.6422 81.7743 41.4622 79.8135C42.2822 77.8526 43.5629 76.3242 45.3043 75.2284C47.0455 74.1179 49.2416 73.5425 51.8927 73.5024C54.822 73.458 57.1299 73.9724 58.8163 75.0456C60.5024 76.1042 61.6897 77.5952 62.3781 79.5186C63.0811 81.4417 63.4538 83.8021 63.4962 86.5996C63.5346 89.1335 63.1221 91.4032 62.2589 93.4087C61.41 95.3993 60.1009 96.9867 58.3315 98.1709C56.5766 99.3402 54.4102 99.9443 51.8324 99.9834C47.8485 100.044 44.9445 98.8644 43.1206 96.4455C41.2964 94.0119 40.3537 90.7739 40.2924 86.7314ZM52.6356 93.5325C53.3826 93.5212 53.8358 93.4557 53.9951 93.3361C54.3231 92.7451 54.5669 91.9137 54.7265 90.8418C54.886 89.7699 54.9564 88.6115 54.9375 87.3665C54.9202 86.2241 54.8308 85.156 54.6692 84.1622C54.5074 83.1538 54.2904 82.366 54.0181 81.7988C53.8541 81.6108 53.5298 81.4765 53.0451 81.396C52.5602 81.3008 52.0321 81.2575 51.4609 81.2662C50.7139 81.2775 50.2025 81.3658 49.9267 81.5311C49.2134 82.8018 48.8738 84.5577 48.9077 86.7986C48.9237 87.8532 49.0205 88.9285 49.1983 90.0246C49.3761 91.1206 49.5962 92.1135 49.8587 93.0032C50.0374 93.1909 50.3984 93.332 50.9419 93.4263C51.4852 93.506 52.0498 93.5414 52.6356 93.5325ZM66.4369 86.3353C66.3967 83.6842 66.7866 81.3783 67.6066 79.4174C68.4266 77.4565 69.7073 75.9281 71.4487 74.8323C73.1899 73.7218 75.3861 73.1465 78.0371 73.1063C80.9665 73.0619 83.2743 73.5763 84.9607 74.6495C86.6469 75.7081 87.8341 77.1991 88.5225 79.1225C89.2256 81.0456 89.5983 83.406 89.6407 86.2035C89.6791 88.7374 89.2666 91.0071 88.4033 93.0126C87.5545 95.0032 86.2454 96.5906 84.476 97.7748C82.7211 98.9441 80.5547 99.5482 77.9768 99.5873C73.9929 99.6476 71.089 98.4684 69.265 96.0494C67.4408 93.6158 66.4981 90.3778 66.4369 86.3353ZM78.7801 93.1364C79.5271 93.1251 79.9802 93.0596 80.1396 92.94C80.4676 92.349 80.7114 91.5176 80.8709 90.4457C81.0305 89.3738 81.1008 88.2154 81.082 86.9704C81.0647 85.828 80.9752 84.7599 80.8137 83.7661C80.6519 82.7577 80.4349 81.9699 80.1626 81.4027C79.9986 81.2147 79.6742 81.0805 79.1895 80.9999C78.7047 80.9047 78.1766 80.8614 77.6054 80.8701C76.8584 80.8814 76.347 80.9697 76.0711 81.135C75.3579 82.4058 75.0182 84.1616 75.0522 86.4025C75.0681 87.4571 75.165 88.5324 75.3428 89.6285C75.5205 90.7246 75.7407 91.7174 76.0032 92.6071C76.1818 92.7949 76.5429 92.9359 77.0864 93.0302C77.6296 93.1099 78.1942 93.1453 78.7801 93.1364ZM94.3959 86.7687C94.3597 84.3813 94.3634 82.2057 94.4069 80.2419L92.0058 79.8608C91.8043 79.1313 91.6627 78.4889 91.581 77.9334C91.4994 77.3779 91.4538 76.7853 91.4442 76.1555L91.4815 75.7154C91.5223 75.5097 91.5418 75.3409 91.5398 75.2091L94.7148 74.4578C94.7743 73.5486 94.9272 72.5208 95.1735 71.3743C95.4198 70.2279 95.6854 69.3815 95.9701 68.8351C96.4335 68.4765 96.9934 68.2043 97.6498 68.0186C98.3062 67.8328 99.0153 67.7342 99.7769 67.7226C100.421 67.7129 101.045 67.7694 101.647 67.8921C102.264 67.9999 102.801 68.153 103.259 68.3511C103.31 68.8485 103.341 69.4193 103.35 70.0638C103.366 71.1184 103.333 72.3129 103.251 73.6473L107.107 72.8856C107.663 73.8148 107.949 74.8287 107.966 75.9272C107.978 76.6888 107.893 77.3786 107.712 77.9967C107.545 78.6145 107.307 79.314 106.996 80.0952C106.032 80.2709 104.708 80.3935 103.024 80.463C102.856 82.8535 102.455 86.3683 101.822 91.0073L101.723 91.756L101.768 91.7993L106.907 90.1172C107.989 90.9945 108.662 92.3614 108.924 94.218C108.926 94.3205 108.457 94.8111 107.518 95.6896C106.594 96.5534 105.427 97.3621 104.017 98.116C102.607 98.8552 101.067 99.2375 99.3977 99.2628C96.483 99.3069 94.9035 97.5509 94.6592 93.9946C94.5293 92.1946 94.4416 89.786 94.3959 86.7687ZM117.62 63.321C118.013 63.1832 118.554 63.1091 119.243 63.0986C120.268 63.0831 121.391 63.2053 122.611 63.4651C123.83 63.7104 124.758 64.0259 125.394 64.4118L117.048 100.995L116.653 101.001C115.598 101.017 114.629 100.9 113.747 100.65C112.864 100.399 112.023 100.009 111.224 99.4792L117.62 63.321ZM127.046 95.1521C127.011 92.8086 127.604 90.8878 128.827 89.3896C129.234 89.1637 129.714 88.9879 130.269 88.8623C130.824 88.722 131.409 88.6472 132.024 88.6379C133.108 88.6215 134.084 88.7972 134.954 89.1649C134.961 89.5896 134.973 89.9044 134.991 90.1093C135.028 91.5884 135.084 92.8548 135.158 93.9084C135.232 94.9475 135.382 96.1026 135.606 97.3737C135.845 98.6447 136.195 99.9652 136.655 101.335C136.993 101.418 137.448 101.455 138.019 101.447L138.81 101.413C138.941 101.396 139.132 101.386 139.381 101.382L139.711 101.399C139.737 100.241 139.737 98.7615 139.709 96.96C139.656 93.474 139.52 89.2935 139.299 84.4183C139.145 81.0072 139.052 78.2031 139.018 76.0061C138.988 74.0288 139.009 72.5049 139.081 71.4343C137.514 71.5167 136.234 71.6093 135.239 71.7123L135.267 77.8869C134.392 78.1199 133.617 78.2781 132.945 78.3616C132.287 78.4448 131.562 78.4851 130.771 78.4824C130.4 78.195 129.997 77.6444 129.559 76.8306C129.137 76.002 128.778 75.0625 128.484 74.0121C128.189 72.9471 128.035 71.9386 128.021 70.9866C128.001 69.6684 128.218 68.5663 128.674 67.6804C129.144 66.7943 129.852 66.1463 130.798 65.7364C131.292 65.4652 131.86 65.2588 132.502 65.1172C133.159 64.9608 133.978 64.8165 134.957 64.6845C136.01 64.5367 137.18 64.453 138.469 64.4335C139.831 64.4129 141.246 64.4574 142.713 64.567C144.194 64.6618 145.573 64.8093 146.851 65.0097L148.036 66.3542C147.955 71.6442 147.883 75.6008 147.82 78.2241C147.778 79.3089 147.74 81.1846 147.707 83.8515C147.624 87.9841 147.544 91.4134 147.468 94.1395C147.392 96.8509 147.297 98.8081 147.183 100.011C147.069 101.2 146.901 102.213 146.68 103.051C146.473 103.904 146.14 104.649 145.681 105.286C145.092 106.086 144.288 106.684 143.269 107.081C142.264 107.477 141.124 107.684 139.85 107.704C137.697 107.736 135.869 107.5 134.367 106.996C132.866 106.491 131.571 105.624 130.482 104.396C129.409 103.181 128.505 101.51 127.769 99.3823C127.309 98.0122 127.068 96.6021 127.046 95.1521ZM159.392 83.4327C160.256 83.4196 161.209 83.4931 162.252 83.6531C163.309 83.8129 164.279 84.0106 165.162 84.2463L165.151 83.5652C165.144 83.1112 165.122 82.6061 165.084 82.0499C165.061 81.4936 165.027 81.1279 164.98 80.9528C164.844 80.7058 164.46 80.4552 163.826 80.2011C163.207 79.9468 162.194 79.8303 160.788 79.8516C159.924 79.8647 159.032 79.9881 158.113 80.2217C157.208 80.4406 156.201 80.7342 155.093 81.1025C154.478 80.1157 153.98 79.1783 153.6 78.2904C153.235 77.3876 153.046 76.4822 153.032 75.5741C153.028 75.2958 153.045 75.0171 153.085 74.7382C155.43 72.8567 158.484 71.8875 162.249 71.8305C164.328 71.799 166.178 72.0054 167.796 72.4497C169.414 72.8939 170.753 73.782 171.814 75.1137C172.874 76.4455 173.423 78.349 173.46 80.8243C173.497 83.241 173.247 85.5888 172.71 87.8677C172.188 90.1317 171.919 91.2858 171.905 91.33L175.071 89.9196C175.502 90.3672 175.884 90.9181 176.216 91.5723C176.563 92.2117 176.787 92.9555 176.887 93.8036C176.689 94.2462 176.251 94.8168 175.573 95.5156C174.895 96.1998 174.062 96.8131 173.074 97.3555C172.086 97.8978 171.05 98.1772 169.966 98.1937C168.75 98.2121 167.822 97.8672 167.181 97.1591C166.555 96.4507 166.234 95.5253 166.216 94.3828C166.206 93.7384 166.292 93.0852 166.472 92.4232L165.81 92.2354C165.435 94.5558 164.588 96.1509 163.268 97.0206C161.948 97.8903 160.482 98.3373 158.871 98.3618C157.816 98.3777 156.794 98.1002 155.804 97.5292C154.813 96.9436 154.002 96.0915 153.37 94.973C152.737 93.8399 152.409 92.5117 152.386 90.9884C152.35 88.5571 152.929 86.7024 154.126 85.4243C155.322 84.1316 157.078 83.4678 159.392 83.4327ZM162.023 91.7654C162.388 91.6866 162.817 91.475 163.31 91.1306C163.818 90.7859 164.266 90.3763 164.654 89.9016C165.042 89.4269 165.27 88.9766 165.337 88.5508L165.197 88.0255C164.419 87.9347 163.591 87.896 162.712 87.9093C161.965 87.9206 161.453 87.987 161.177 88.1084C160.716 88.6427 160.491 89.2322 160.5 89.8766C160.507 90.3453 160.631 90.7683 160.871 91.1456C161.126 91.5226 161.51 91.7292 162.023 91.7654ZM180.014 89.8447C181.31 90.3378 182.349 90.7176 183.13 90.9842C183.91 91.2507 184.763 91.4795 185.689 91.6706C186.63 91.8614 187.561 91.9498 188.484 91.9359C188.894 91.9297 189.186 91.8886 189.361 91.8127C189.404 91.7534 189.439 91.665 189.467 91.5474C189.509 91.4149 189.529 91.2828 189.527 91.1509C189.522 90.858 189.35 90.6189 189.011 90.4336C188.479 90.1486 187.534 89.7015 186.177 89.0921C184.319 88.2412 182.842 87.4798 181.748 86.8078C180.668 86.1356 179.746 85.234 178.982 84.1028C178.232 82.9715 177.844 81.5416 177.818 79.8133C177.781 77.338 178.49 75.3422 179.947 73.8258C181.403 72.2948 183.735 71.505 186.943 71.4564C190.766 71.3985 193.747 71.8514 195.886 72.8152C195.995 73.2384 196.054 73.7722 196.064 74.4167C196.082 75.647 195.911 76.9095 195.55 78.2042C195.188 79.4842 194.705 80.4365 194.099 81.061C193.26 80.7953 192.074 80.3665 190.541 79.7744C189.421 79.3519 188.53 79.0284 187.867 78.804C187.219 78.5648 186.623 78.398 186.08 78.3037C185.788 78.3814 185.556 78.5607 185.385 78.8417C185.213 79.108 185.13 79.4242 185.136 79.7904C185.14 80.1126 185.24 80.3821 185.433 80.5989C185.627 80.8158 185.842 80.9883 186.079 81.1166C186.329 81.23 186.683 81.3858 187.14 81.5839C187.376 81.6829 187.598 81.7748 187.804 81.8596C188.01 81.9297 188.202 82 188.378 82.0706C189.528 82.5366 190.435 82.9185 191.099 83.2161C191.763 83.5137 192.405 83.8702 193.027 84.2856C194.166 85.0448 195.066 85.9175 195.725 86.9037C196.385 87.8899 196.724 88.9762 196.742 90.1626C196.767 91.8031 196.319 93.2309 195.4 94.4461C194.495 95.6465 193.322 96.5286 191.88 97.0925C191.123 97.3824 190.291 97.5927 189.385 97.7237C188.493 97.869 187.447 97.9508 186.246 97.969C184.825 97.9905 183.356 97.7417 181.84 97.2227C180.337 96.6887 179.181 95.7833 178.37 94.5064C178.371 93.6127 178.477 92.8346 178.687 92.1722C178.911 91.4949 179.353 90.7191 180.014 89.8447ZM200.413 83.009C200.31 76.2129 200.371 71.5386 200.596 68.9861L198.107 68.5843C197.735 67.2421 197.537 65.7947 197.514 64.2422C197.729 63.9606 198.134 63.6102 198.728 63.191C199.323 62.7717 200.013 62.4024 200.799 62.0828C201.6 61.763 202.396 61.5971 203.187 61.5851C204.989 61.5579 206.336 61.9989 207.229 62.9084C208.121 63.8178 208.582 65.2245 208.611 67.1286C208.624 67.9635 208.571 69.3121 208.453 71.1745C208.334 73.0222 208.152 75.01 207.906 77.138C207.659 79.2514 207.366 81.1383 207.024 82.799C207.026 82.8869 207.078 82.9666 207.182 83.0383C207.286 83.11 207.396 83.145 207.513 83.1432C207.645 83.1412 207.732 83.0886 207.774 82.9854C208.325 80.6477 208.881 78.6908 209.443 77.1147C210.006 75.5386 210.871 74.1338 212.039 72.9001C213.207 71.6665 214.735 71.0353 216.625 71.0067C218.968 70.9712 220.663 71.6634 221.71 73.0832C222.757 74.4884 223.297 76.2749 223.33 78.4426C223.359 80.376 223.161 82.2469 222.734 84.0553C222.307 85.8491 221.771 87.7251 221.127 89.6833C221.155 89.6096 221.057 89.8968 220.832 90.5448L220.877 90.5881L224.108 89.1767C225.265 90.1407 225.951 91.4342 226.166 93.0571C226.168 93.1596 225.845 93.5893 225.197 94.3463C224.549 95.0886 223.688 95.7902 222.614 96.4511C221.554 97.0971 220.329 97.4307 218.937 97.4517C217.546 97.4728 216.405 97.1165 215.515 96.3829C214.625 95.6492 214.166 94.3816 214.139 92.58C214.117 91.1446 214.147 89.225 214.227 86.8212C214.308 84.4173 214.396 82.4822 214.491 81.0157C214.104 80.6114 213.632 80.3988 213.075 80.3779C212.572 81.0448 211.838 82.3745 210.872 84.3669C209.906 86.3593 209.225 87.8492 208.83 88.8368C208.804 89.0423 208.792 89.2402 208.795 89.4306C208.806 90.163 208.931 91.15 209.17 92.3916C209.408 93.6186 209.696 94.7643 210.035 95.8286C209.779 96.3306 209.243 96.7562 208.428 97.1055C207.613 97.4548 206.605 97.6386 205.404 97.6568C204.32 97.6732 203.447 97.5985 202.785 97.4327C202.138 97.2668 201.681 97.0905 201.415 96.9041C201.148 96.7031 201.014 96.5806 201.014 96.5366C200.997 96.405 200.955 96.0614 200.888 95.5057C200.821 94.9354 200.75 94.1453 200.676 93.1356C200.602 92.1112 200.555 90.9472 200.536 89.6437L200.413 83.009Z" fill="url(#paint0_linear_3_2)"/>
<defs>
<linearGradient id="paint0_linear_3_2" x1="-1.20274" y1="52.9723" x2="236.203" y2="49.3756" gradientUnits="userSpaceOnUse">
<stop stop-color="#238ED5"/>
<stop offset="0.5" stop-color="#8E59DC"/>
<stop offset="1" stop-color="#F825E3"/>
</linearGradient>
</defs>
</svg>
